<svg xmlns="http://www.w3.org/2000/svg">
  <symbol id="grid" viewBox="0 0 24 24"><path d="M4 4h6v6H4zM14 4h6v6h-6zM4 14h6v6H4zM14 14h6v6h-6z"/></symbol>
  <symbol id="globe" viewBox="0 0 24 24"><circle cx="12" cy="12" r="9"/><path d="M3 12h18M12 3c3 3.2 3 14.8 0 18M12 3c-3 3.2-3 14.8 0 18"/></symbol>
  <symbol id="plus" viewBox="0 0 24 24"><path d="M12 5v14M5 12h14"/></symbol>
  <symbol id="layers" viewBox="0 0 24 24"><path d="m12 3 9 5-9 5-9-5 9-5Z"/><path d="m3 12 9 5 9-5M3 16l9 5 9-5"/></symbol>
  <symbol id="upload" viewBox="0 0 24 24"><path d="M12 16V4m0 0L7 9m5-5 5 5"/><path d="M4 15v5h16v-5"/></symbol>
  <symbol id="history" viewBox="0 0 24 24"><path d="M4 7v5h5"/><path d="M5.5 16a8 8 0 1 0 .2-8.2L4 12"/></symbol>
  <symbol id="key" viewBox="0 0 24 24"><circle cx="8" cy="15" r="4"/><path d="m11 12 9-9m-3 3 3 3m-6 0 3 3"/></symbol>
  <symbol id="users" viewBox="0 0 24 24"><circle cx="9" cy="8" r="4"/><path d="M2 21c0-4 3-7 7-7s7 3 7 7M16 4a4 4 0 0 1 0 8M17 15c3 .5 5 2.7 5 6"/></symbol>
  <symbol id="server" viewBox="0 0 24 24"><rect x="3" y="4" width="18" height="6" rx="2"/><rect x="3" y="14" width="18" height="6" rx="2"/><path d="M7 7h.01M7 17h.01"/></symbol>
  <symbol id="box" viewBox="0 0 24 24"><path d="m4 7 8-4 8 4v10l-8 4-8-4V7Z"/><path d="m4 7 8 4 8-4M12 11v10"/></symbol>
  <symbol id="code" viewBox="0 0 24 24"><path d="m8 9-4 3 4 3m8-6 4 3-4 3m-3-9-2 12"/></symbol>
  <symbol id="shield" viewBox="0 0 24 24"><path d="M12 3 4 6v6c0 5 3.4 8 8 10 4.6-2 8-5 8-10V6l-8-3Z"/><path d="m9 12 2 2 4-5"/></symbol>
  <symbol id="file" viewBox="0 0 24 24"><path d="M6 3h8l4 4v14H6z"/><path d="M14 3v5h5"/></symbol>
  <symbol id="settings" viewBox="0 0 24 24"><circle cx="12" cy="12" r="3"/><path d="M19 13.5v-3l-2-.7-.7-1.7.9-1.9-2.1-2.1-1.9.9-1.7-.7L10.5 2h-3l-.7 2.3-1.7.7-1.9-.9-2.1 2.1.9 1.9-.7 1.7-2 .7v3l2 .7.7 1.7-.9 1.9 2.1 2.1 1.9-.9 1.7.7.7 2.3h3l.7-2.3 1.7-.7 1.9.9 2.1-2.1-.9-1.9.7-1.7 2-.7Z" transform="scale(.9) translate(1.3 1.3)"/></symbol>
  <symbol id="menu" viewBox="0 0 24 24"><path d="M4 7h16M4 12h16M4 17h16"/></symbol>
  <symbol id="x" viewBox="0 0 24 24"><path d="m6 6 12 12M18 6 6 18"/></symbol>
  <symbol id="copy" viewBox="0 0 24 24"><rect x="8" y="8" width="12" height="12" rx="2"/><path d="M16 8V6a2 2 0 0 0-2-2H6a2 2 0 0 0-2 2v8a2 2 0 0 0 2 2h2"/></symbol>
</svg>
